# xmcd
#
# Track frame offsets:
#	150
#	9920
#	19006
#	28637
#	37880
#	49819
#	60120
#	69876
#	80767
#	90137
#	100834
#	109045
#	121521
#	132184
#	142740
#	151491
#	163003
#	171588
#	180416
#	190523
#	201286
#	210349
#	222809
#	233747
#	242142
#	253148
#	264284
#	275817
#	285853
#	297347
#
# Disc length: 4120 seconds
#
# Revision: 0
# Processed by: cddbd v1.5.2PL0 Copyright (c) Steve Scherf et al.
# Submitted via: EasyCDDAExtractor 16.0.1.1
#
DISCID=8810161e
DTITLE=Conway Twitty - Conway Rocks
DYEAR=1900
DGENRE=Country
TTITLE0=It's Only Make Believe
TTITLE1=I Vibrate (From My Head To My Feet)
TTITLE2=Rock House
TTITLE3=Give Me Some Love
TTITLE4=Shake It Up
TTITLE5=Double Talk Baby
TTITLE6=Don't You Know
TTITLE7=Mona Lisa
TTITLE8=Teasin'
TTITLE9=Make Me Know You're Mine
TTITLE10=Hey Little Lucy (Don'tcha Put No Lipstick On)
TTITLE11=Danny Boy
TTITLE12=Hey Miss Ruby
TTITLE13=Restless
TTITLE14=She's Mine
TTITLE15=Foggy River
TTITLE16=Pretty Eyed Baby
TTITLE17=Rebound
TTITLE18=Lonely Blue Boy
TTITLE19=The Hurt In My Heart
TTITLE20=Tell Me One More Time
TTITLE21=Long Black Train
TTITLE22=It's Driving Me Wild
TTITLE23=Blue Suede Shoes
TTITLE24=Platinum High School
TTITLE25=Can't We Go Steady
TTITLE26=Such A Night
TTITLE27=My Baby Left Me
TTITLE28=My Babe
TTITLE29=Is A Bluebird Blue
EXTD=
EXTT0=
EXTT1=
EXTT2=
EXTT3=
EXTT4=
EXTT5=
EXTT6=
EXTT7=
EXTT8=
EXTT9=
EXTT10=
EXTT11=
EXTT12=
EXTT13=
EXTT14=
EXTT15=
EXTT16=
EXTT17=
EXTT18=
EXTT19=
EXTT20=
EXTT21=
EXTT22=
EXTT23=
EXTT24=
EXTT25=
EXTT26=
EXTT27=
EXTT28=
EXTT29=
PLAYORDER=
